<?xml version="1.0" encoding="utf-8"?>
<!-- Generator: Adobe Illustrator 15.0.2, SVG Export Plug-In . SVG Version: 6.00 Build 0)  -->
<!DOCTYPE svg PUBLIC "-//W3C//DTD SVG 1.1//EN" "http://www.w3.org/Graphics/SVG/1.1/DTD/svg11.dtd">
<svg version="1.1" id="Layer_1" xmlns="http://www.w3.org/2000/svg" xmlns:xlink="http://www.w3.org/1999/xlink" x="0px" y="0px"
	 width="974.606px" height="253.46px"  style="enable-background:new 0 0 974.606 253.46;"
	 xml:space="preserve">
	 <symbol id="creative-tech" viewBox="0 0 974.606 253.46">
<style type="text/css">
<![CDATA[
	.st0{fill:url(#SVGID_1_);}
	.st1{fill:url(#SVGID_2_);}
	.st2{fill:url(#SVGID_3_);}
	.st3{fill:url(#SVGID_4_);}
	.st4{fill:url(#SVGID_5_);}
	.st5{fill:url(#SVGID_6_);}
	.st6{fill:url(#SVGID_7_);}
	.st7{fill:url(#SVGID_8_);}
	.st8{fill:url(#SVGID_9_);}
	.st9{fill:#004A8A;}
	.st10{fill:url(#SVGID_10_);}
	.st11{fill:url(#SVGID_11_);}
	.st12{fill:url(#SVGID_12_);}
	.st13{fill:url(#SVGID_13_);}
	.st14{fill:url(#SVGID_14_);}
	.st15{fill:url(#SVGID_15_);}
	.st16{fill:url(#SVGID_16_);}
	.st17{fill:url(#SVGID_17_);}
	.st18{fill:url(#SVGID_18_);}
	.st19{fill:url(#SVGID_19_);}
	.st20{fill:url(#SVGID_20_);}
	.st21{fill:url(#SVGID_21_);}
	.st22{fill:url(#SVGID_22_);}
	.st23{fill:url(#SVGID_23_);}
	.st24{fill:url(#SVGID_24_);}
	.st25{fill:url(#SVGID_25_);}
	.st26{fill:url(#SVGID_26_);}
	.st27{fill:url(#SVGID_27_);}
	.st28{fill:url(#SVGID_28_);}
	.st29{fill:url(#SVGID_29_);}
	.st30{fill:url(#SVGID_30_);}
	.st31{fill:url(#SVGID_31_);}
	.st32{fill:url(#SVGID_32_);}
	.st33{fill:url(#SVGID_33_);}
	.st34{fill:url(#SVGID_34_);}
	.st35{fill:url(#SVGID_35_);}
	.st36{fill:url(#SVGID_36_);}
	.st37{fill:url(#SVGID_37_);}
	.st38{fill:url(#SVGID_38_);}
	.st39{fill:url(#SVGID_39_);}
	.st40{fill:url(#SVGID_40_);}
	.st41{fill:url(#SVGID_41_);}
	.st42{fill:url(#SVGID_42_);}
	.st43{fill:url(#SVGID_43_);}
	.st44{fill:url(#SVGID_44_);}
	.st45{fill:url(#SVGID_45_);}
	.st46{fill:url(#SVGID_46_);}
	.st47{fill:url(#SVGID_47_);}
	.st48{fill:url(#SVGID_48_);}
	.st49{fill:url(#SVGID_49_);}
	.st50{fill:url(#SVGID_50_);}
	.st51{fill:#3FA9F5;}
]]>
</style>
<g>
	<g>
		<path d="M40.265,180.774c-0.726,5.304-7.535,13.181-16.102,13.073c-6.945-0.087-9.251-1.284-12.708-4.61
			c-4.321-3.991-3.794-11.089-0.337-15.745c2.593-2.661,7.198-6.186,12.821-6.523c6.913,0,12.144,3.811,15.11,9.251
			C39.838,177.602,40.273,179.139,40.265,180.774z"/>
		<g>
			<path class="st51" d="M24.232,166.451l1.085,0.014c0.178,0.005,0.556-0.006,0.838-0.012c0.611-0.018,1.245-0.06,1.893-0.114
				c1.299-0.113,2.667-0.299,4.09-0.55c2.847-0.5,5.9-1.254,9.095-2.14c6.416-1.765,13.33-4.097,21.189-5.89
				c3.937-0.884,8.143-1.628,12.705-1.902c1.137-0.071,2.302-0.102,3.481-0.102c0.589-0.001,1.187,0.013,1.784,0.031l1.417,0.061
				l2.945,0.163l2.948,0.225l1.458,0.137l1.496,0.153l2.905,0.346c1.949,0.253,3.904,0.553,5.86,0.897
				c1.936,0.339,3.96,0.745,5.825,1.174c0.837,0.191,2.053,0.478,2.971,0.718c0.976,0.246,1.947,0.516,2.917,0.786l0.723,0.201
				l0.533,0.214c9.991,4.019,20.817,6.127,31.999,6.594c5.59,0.241,11.268,0.081,16.983-0.401c2.858-0.241,5.726-0.564,8.599-0.957
				l2.198-0.321l2.059-0.326c1.413-0.237,2.817-0.49,4.21-0.759l-2.281,0.708c7.928-3.248,16.214-5.566,24.592-6.954
				c8.381-1.393,16.849-1.864,25.213-1.541c16.75,0.654,33.026,4.419,48.272,10.3l-2.109-0.57
				c5.243,0.956,10.604,1.577,15.909,1.858c0.667,0.04,1.334,0.069,2.002,0.091l1.002,0.038l0.85,0.006l1.913-0.012l1.965-0.049
				c2.627-0.098,5.278-0.286,7.96-0.567c5.362-0.551,10.845-1.447,16.476-2.454c5.646-1.015,11.404-2.115,17.369-3.092l-0.906,0.197
				c10.809-2.741,21.817-4.117,32.701-4.5c10.892-0.384,21.67,0.206,32.261,1.384c5.296,0.59,10.549,1.328,15.759,2.175l3.9,0.655
				l1.944,0.342l0.485,0.086l0.122,0.021c0.472,0.069-0.507-0.069-0.363-0.05l0.239,0.031l0.955,0.124
				c2.604,0.343,4.939,0.625,7.518,0.926c10.046,1.167,20.111,2.125,30.144,2.744c2.492,0.154,5.046,0.29,7.522,0.399l7.633,0.331
				c4.908,0.187,9.868,0.198,14.868,0.099c2.495-0.048,5.021-0.125,7.518-0.22l7.6-0.336l0.952-0.047
				c-1.061,0.098-0.225,0.02-0.431,0.038l0.119-0.014l0.239-0.026l0.479-0.054l1.913-0.214l3.952-0.407
				c2.613-0.262,5.229-0.485,7.847-0.698c20.939-1.653,41.946-1.648,62.772-0.359c5.208,0.317,10.405,0.716,15.592,1.181
				l0.486,0.043l0.243,0.022c0.166,0.01-1.008-0.045-0.454-0.021l0.12,0.002l0.963,0.02l1.925,0.04l3.843,0.076l7.688,0.143
				c10.253,0.184,20.497,0.343,30.736,0.444l30.753,0.164c10.212,0.028,20.452-0.062,30.721-0.155
				c20.534-0.185,41.189-0.375,61.92,0.403l7.775,0.343l1.944,0.101l0.486,0.025l0.121,0.006c-0.088-0.001,0.37,0.012-0.167-0.001
				l0.241,0.002l0.962,0.01l3.851,0.038l15.301,0.153l30.703,0.307v11.793l-30.703,0.307l-15.352,0.153l-3.825,0.038l-0.949,0.01
				l-0.235,0.002l-0.522-0.014l-0.476-0.015l-1.901-0.061l-7.617-0.184c-20.333-0.359-40.76,0.231-61.287,0.826
				c-10.265,0.297-20.558,0.593-30.883,0.77l-30.856,0.449c-10.298,0.104-20.59,0.17-30.872,0.19l-7.715,0.032h-3.858h-1.926h-0.963
				h-0.12c0.474,0-0.78-0.054-0.694-0.052l-0.236-0.027l-0.474-0.039c-5.05-0.352-10.099-0.64-15.146-0.847
				c-20.188-0.846-40.354-0.441-60.332,1.536c-2.496,0.253-4.991,0.515-7.481,0.814l-3.7,0.456l-1.909,0.251l-0.478,0.063
				l-0.238,0.032l-0.119,0.016c-0.286,0.027,0.471-0.039-0.671,0.065l-0.97,0.067l-7.779,0.5c-2.631,0.153-5.235,0.283-7.873,0.388
				c-5.264,0.208-10.576,0.305-15.933,0.208l-7.761-0.181c-2.656-0.064-5.231-0.151-7.867-0.26
				c-10.478-0.438-20.882-1.222-31.258-2.218c-2.527-0.243-5.296-0.523-7.788-0.802l-0.957-0.105l-0.239-0.026l-0.716-0.105
				l-0.464-0.073l-1.855-0.289l-3.707-0.547c-4.94-0.702-9.873-1.294-14.792-1.743c-19.644-1.806-39.258-1.268-57.402,3.736
				l-0.333,0.092l-0.574,0.105c-5.512,1.015-11.175,2.211-16.971,3.374c-5.812,1.157-11.812,2.273-18.025,3.04
				c-3.103,0.388-6.26,0.68-9.45,0.861l-2.4,0.108l-2.455,0.063l-1.334,0.013l-1.182-0.021c-0.788-0.01-1.576-0.029-2.363-0.06
				c-6.333-0.212-12.578-0.811-18.818-1.817l-0.97-0.156l-1.14-0.415c-13.263-4.819-27.155-7.679-40.891-7.932
				c-13.728-0.27-27.257,2.157-39.498,7.48l-0.995,0.433l-1.286,0.276c-1.646,0.353-3.287,0.683-4.927,0.991l-2.528,0.451
				l-2.397,0.398c-3.262,0.512-6.552,0.951-9.868,1.298c-6.631,0.692-13.374,1.027-20.182,0.872
				c-6.806-0.152-13.681-0.8-20.511-2.044c-6.83-1.243-13.611-3.094-20.18-5.575l1.255,0.416l-2.238-0.554l-1.079-0.245
				l-1.139-0.245c-1.604-0.336-3.07-0.596-4.637-0.839c-1.547-0.24-3.108-0.448-4.686-0.621l-2.39-0.235l-0.663-0.06
				c-0.031-0.003,0.188,0.018,0.087,0.009l-0.019-0.001l-0.037-0.003l-0.075-0.005l-0.149-0.011l-0.299-0.022l-1.197-0.088
				l-2.367-0.133c-0.763-0.028-1.426-0.066-2.377-0.084l-1.246-0.029l-0.879,0.003c-0.597,0.014-1.207,0.038-1.841,0.092
				c-2.53,0.198-5.34,0.713-8.317,1.444c-5.979,1.459-12.521,3.757-19.756,5.917c-3.63,1.075-7.458,2.121-11.594,2.933
				c-2.068,0.404-4.215,0.747-6.451,0.986c-1.12,0.117-2.257,0.213-3.42,0.271c-0.604,0.026-1.114,0.054-1.824,0.062l-1.579,0.01
				L24.232,166.451z"/>
			<linearGradient id="SVGID_1_" gradientUnits="userSpaceOnUse" x1="23.9995" y1="174.5288" x2="831.0654" y2="174.5288">
				<stop  offset="0" style="stop-color:#00C9FF"/>
				<stop  offset="1" style="stop-color:#004A8A"/>
			</linearGradient>
			<path class="st0" d="M24,180.595c18.03,0.361,38.099-11.827,56.024-11.29c2.869,0.075,5.753,0.201,8.599,0.465
				c4.268,0.405,8.521,0.988,12.725,1.861c2.103,0.436,4.203,0.926,6.286,1.5c20.786,8.058,42.691,8.514,64.178,5.334
				c3.066-0.46,6.126-0.997,9.148-1.625c28.963-12.161,60.938-9.502,89.233,1.127c1.952,0.333,3.91,0.623,5.871,0.871
				c1.961,0.249,3.925,0.456,5.893,0.619c2.951,0.246,5.911,0.396,8.882,0.451c14.498,0.05,27.844-2.931,41.632-5.548
				c2.298-0.435,4.61-0.862,6.945-1.266c26.925-7.087,55.443-5.092,82.842-0.437c2.339,0.291,4.694,0.561,7.052,0.815
				c11.787,1.277,23.544,2.277,35.293,2.812c2.829,0.128,5.662,0.23,8.568,0.302c8.914,0.418,17.875,0.231,26.846-0.195
				c2.991-0.141,5.982-0.31,8.974-0.492c31.052-3.907,61.298-3.907,92.03-1.411c3.207,0.038,6.427,0.068,9.647,0.096
				c19.325,0.169,38.692,0.468,58.137,0.269c37.16,0,74.319-2.133,111.186-0.133c2.895,0,5.718,0,8.428,0
				c27.097,0,42.648,0,42.648,0"/>
		</g>
	</g>
	<g>
		<g>
			<linearGradient id="SVGID_2_" gradientUnits="userSpaceOnUse" x1="8.3696" y1="175.0479" x2="970.0654" y2="175.0479">
				<stop  offset="0" style="stop-color:#004A8A"/>
				<stop  offset="1" style="stop-color:#00C9FF"/>
			</linearGradient>
			<rect x="959.065" y="168.722" class="st1" width="11" height="11"/>
		</g>
		<g>
			<linearGradient id="SVGID_3_" gradientUnits="userSpaceOnUse" x1="8.3696" y1="175.0479" x2="970.0654" y2="175.0479">
				<stop  offset="0" style="stop-color:#004A8A"/>
				<stop  offset="1" style="stop-color:#00C9FF"/>
			</linearGradient>
			<rect x="936.065" y="168.722" class="st2" width="13" height="11"/>
		</g>
		<g>
			<linearGradient id="SVGID_4_" gradientUnits="userSpaceOnUse" x1="8.3696" y1="175.0479" x2="970.0654" y2="175.0479">
				<stop  offset="0" style="stop-color:#004A8A"/>
				<stop  offset="1" style="stop-color:#00C9FF"/>
			</linearGradient>
			<rect x="913.065" y="168.722" class="st3" width="15" height="11"/>
		</g>
		<g>
			<linearGradient id="SVGID_5_" gradientUnits="userSpaceOnUse" x1="8.3696" y1="175.0479" x2="970.0654" y2="175.0479">
				<stop  offset="0" style="stop-color:#004A8A"/>
				<stop  offset="1" style="stop-color:#00C9FF"/>
			</linearGradient>
			<rect x="890.065" y="168.722" class="st4" width="18" height="11"/>
		</g>
		<g>
			<linearGradient id="SVGID_6_" gradientUnits="userSpaceOnUse" x1="8.3696" y1="175.0479" x2="970.0654" y2="175.0479">
				<stop  offset="0" style="stop-color:#004A8A"/>
				<stop  offset="1" style="stop-color:#00C9FF"/>
			</linearGradient>
			<rect x="864.065" y="168.722" class="st5" width="24" height="11"/>
		</g>
		<g>
			<linearGradient id="SVGID_7_" gradientUnits="userSpaceOnUse" x1="8.3696" y1="175.0479" x2="970.0654" y2="175.0479">
				<stop  offset="0" style="stop-color:#004A8A"/>
				<stop  offset="1" style="stop-color:#00C9FF"/>
			</linearGradient>
			<rect x="833.065" y="168.722" class="st6" width="28" height="11"/>
		</g>
		<linearGradient id="SVGID_8_" gradientUnits="userSpaceOnUse" x1="8.3696" y1="175.0479" x2="970.0654" y2="175.0479">
			<stop  offset="0" style="stop-color:#004A8A"/>
			<stop  offset="1" style="stop-color:#00C9FF"/>
		</linearGradient>
		<path class="st7" d="M40.265,180.774c-0.726,5.304-7.535,13.181-16.102,13.073c-6.945-0.087-9.251-1.284-12.708-4.61
			c-4.321-3.991-3.794-11.089-0.337-15.745c2.593-2.661,7.198-6.186,12.821-6.523c6.913,0,12.144,3.811,15.11,9.251
			C39.838,177.602,40.273,179.139,40.265,180.774z"/>
		<g>
			<linearGradient id="SVGID_9_" gradientUnits="userSpaceOnUse" x1="8.3696" y1="175.0479" x2="970.0654" y2="175.0479">
				<stop  offset="0" style="stop-color:#004A8A"/>
				<stop  offset="1" style="stop-color:#00C9FF"/>
			</linearGradient>
			<path class="st8" d="M24.232,166.451l1.085,0.014c0.178,0.005,0.556-0.006,0.838-0.012c0.611-0.018,1.245-0.06,1.893-0.114
				c1.299-0.113,2.667-0.299,4.09-0.55c2.847-0.5,5.9-1.254,9.095-2.14c6.416-1.765,13.33-4.097,21.189-5.89
				c3.937-0.884,8.143-1.628,12.705-1.902c1.137-0.071,2.302-0.102,3.481-0.102c0.589-0.001,1.187,0.013,1.784,0.031l1.417,0.061
				l2.945,0.163l2.948,0.225l1.458,0.137l1.496,0.153l2.905,0.346c1.949,0.253,3.904,0.553,5.86,0.897
				c1.936,0.339,3.96,0.745,5.825,1.174c0.837,0.191,2.053,0.478,2.971,0.718c0.976,0.246,1.947,0.516,2.917,0.786l0.723,0.201
				l0.533,0.214c9.991,4.019,20.817,6.127,31.999,6.594c5.59,0.241,11.268,0.081,16.983-0.401c2.858-0.241,5.726-0.564,8.599-0.957
				l2.198-0.321l2.059-0.326c1.413-0.237,2.817-0.49,4.21-0.759l-2.281,0.708c7.928-3.248,16.214-5.566,24.592-6.954
				c8.381-1.393,16.849-1.864,25.213-1.541c16.75,0.654,33.026,4.419,48.272,10.3l-2.109-0.57
				c5.243,0.956,10.604,1.577,15.909,1.858c0.667,0.04,1.334,0.069,2.002,0.091l1.002,0.038l0.85,0.006l1.913-0.012l1.965-0.049
				c2.627-0.098,5.278-0.286,7.96-0.567c5.362-0.551,10.845-1.447,16.476-2.454c5.646-1.015,11.404-2.115,17.369-3.092l-0.906,0.197
				c10.809-2.741,21.817-4.117,32.701-4.5c10.892-0.384,21.67,0.206,32.261,1.384c5.296,0.59,10.549,1.328,15.759,2.175l3.9,0.655
				l1.944,0.342l0.485,0.086l0.122,0.021c0.472,0.069-0.507-0.069-0.363-0.05l0.239,0.031l0.955,0.124
				c2.604,0.343,4.939,0.625,7.518,0.926c10.046,1.167,20.111,2.125,30.144,2.744c2.492,0.154,5.046,0.29,7.522,0.399l7.633,0.331
				c4.908,0.187,9.868,0.198,14.868,0.099c2.495-0.048,5.021-0.125,7.518-0.22l7.6-0.336l0.952-0.047
				c-1.061,0.098-0.225,0.02-0.431,0.038l0.119-0.014l0.239-0.026l0.479-0.054l1.913-0.214l3.952-0.407
				c2.613-0.262,5.229-0.485,7.847-0.698c20.939-1.653,41.946-1.648,62.772-0.359c5.208,0.317,10.405,0.716,15.592,1.181
				l0.486,0.043l0.243,0.022c0.166,0.01-1.008-0.045-0.454-0.021l0.12,0.002l0.963,0.02l1.925,0.04l3.843,0.076l7.688,0.143
				c10.253,0.184,20.497,0.343,30.736,0.444l30.753,0.164c10.212,0.028,20.452-0.062,30.721-0.155
				c20.534-0.185,41.189-0.375,61.92,0.403l7.775,0.343l1.944,0.101l0.486,0.025l0.121,0.006c-0.088-0.001,0.37,0.012-0.167-0.001
				l0.241,0.002l0.962,0.01l3.851,0.038l15.301,0.153l30.703,0.307v11.793l-30.703,0.307l-15.352,0.153l-3.825,0.038l-0.949,0.01
				l-0.235,0.002l-0.522-0.014l-0.476-0.015l-1.901-0.061l-7.617-0.184c-20.333-0.359-40.76,0.231-61.287,0.826
				c-10.265,0.297-20.558,0.593-30.883,0.77l-30.856,0.449c-10.298,0.104-20.59,0.17-30.872,0.19l-7.715,0.032h-3.858h-1.926h-0.963
				h-0.12c0.474,0-0.78-0.054-0.694-0.052l-0.236-0.027l-0.474-0.039c-5.05-0.352-10.099-0.64-15.146-0.847
				c-20.188-0.846-40.354-0.441-60.332,1.536c-2.496,0.253-4.991,0.515-7.481,0.814l-3.7,0.456l-1.909,0.251l-0.478,0.063
				l-0.238,0.032l-0.119,0.016c-0.286,0.027,0.471-0.039-0.671,0.065l-0.97,0.067l-7.779,0.5c-2.631,0.153-5.235,0.283-7.873,0.388
				c-5.264,0.208-10.576,0.305-15.933,0.208l-7.761-0.181c-2.656-0.064-5.231-0.151-7.867-0.26
				c-10.478-0.438-20.882-1.222-31.258-2.218c-2.527-0.243-5.296-0.523-7.788-0.802l-0.957-0.105l-0.239-0.026l-0.716-0.105
				l-0.464-0.073l-1.855-0.289l-3.707-0.547c-4.94-0.702-9.873-1.294-14.792-1.743c-19.644-1.806-39.258-1.268-57.402,3.736
				l-0.333,0.092l-0.574,0.105c-5.512,1.015-11.175,2.211-16.971,3.374c-5.812,1.157-11.812,2.273-18.025,3.04
				c-3.103,0.388-6.26,0.68-9.45,0.861l-2.4,0.108l-2.455,0.063l-1.334,0.013l-1.182-0.021c-0.788-0.01-1.576-0.029-2.363-0.06
				c-6.333-0.212-12.578-0.811-18.818-1.817l-0.97-0.156l-1.14-0.415c-13.263-4.819-27.155-7.679-40.891-7.932
				c-13.728-0.27-27.257,2.157-39.498,7.48l-0.995,0.433l-1.286,0.276c-1.646,0.353-3.287,0.683-4.927,0.991l-2.528,0.451
				l-2.397,0.398c-3.262,0.512-6.552,0.951-9.868,1.298c-6.631,0.692-13.374,1.027-20.182,0.872
				c-6.806-0.152-13.681-0.8-20.511-2.044c-6.83-1.243-13.611-3.094-20.18-5.575l1.255,0.416l-2.238-0.554l-1.079-0.245
				l-1.139-0.245c-1.604-0.336-3.07-0.596-4.637-0.839c-1.547-0.24-3.108-0.448-4.686-0.621l-2.39-0.235l-0.663-0.06
				c-0.031-0.003,0.188,0.018,0.087,0.009l-0.019-0.001l-0.037-0.003l-0.075-0.005l-0.149-0.011l-0.299-0.022l-1.197-0.088
				l-2.367-0.133c-0.763-0.028-1.426-0.066-2.377-0.084l-1.246-0.029l-0.879,0.003c-0.597,0.014-1.207,0.038-1.841,0.092
				c-2.53,0.198-5.34,0.713-8.317,1.444c-5.979,1.459-12.521,3.757-19.756,5.917c-3.63,1.075-7.458,2.121-11.594,2.933
				c-2.068,0.404-4.215,0.747-6.451,0.986c-1.12,0.117-2.257,0.213-3.42,0.271c-0.604,0.026-1.114,0.054-1.824,0.062l-1.579,0.01
				L24.232,166.451z"/>
			<linearGradient id="SVGID_10_" gradientUnits="userSpaceOnUse" x1="8.3696" y1="175.0479" x2="970.0654" y2="175.0479">
				<stop  offset="0" style="stop-color:#004A8A"/>
				<stop  offset="1" style="stop-color:#00C9FF"/>
			</linearGradient>
			<path class="st10" d="M24,180.595c18.03,0.361,38.099-11.827,56.024-11.29c2.869,0.075,5.753,0.201,8.599,0.465
				c4.268,0.405,8.521,0.988,12.725,1.861c2.103,0.436,4.203,0.926,6.286,1.5c20.786,8.058,42.691,8.514,64.178,5.334
				c3.066-0.46,6.126-0.997,9.148-1.625c28.963-12.161,60.938-9.502,89.233,1.127c1.952,0.333,3.91,0.623,5.871,0.871
				c1.961,0.249,3.925,0.456,5.893,0.619c2.951,0.246,5.911,0.396,8.882,0.451c14.498,0.05,27.844-2.931,41.632-5.548
				c2.298-0.435,4.61-0.862,6.945-1.266c26.925-7.087,55.443-5.092,82.842-0.437c2.339,0.291,4.694,0.561,7.052,0.815
				c11.787,1.277,23.544,2.277,35.293,2.812c2.829,0.128,5.662,0.23,8.568,0.302c8.914,0.418,17.875,0.231,26.846-0.195
				c2.991-0.141,5.982-0.31,8.974-0.492c31.052-3.907,61.298-3.907,92.03-1.411c3.207,0.038,6.427,0.068,9.647,0.096
				c19.325,0.169,38.692,0.468,58.137,0.269c37.16,0,74.319-2.133,111.186-0.133c2.895,0,5.718,0,8.428,0
				c27.097,0,42.648,0,42.648,0"/>
		</g>
	</g>
</g>
<g>
	<g>
		<g>
			<g>
				<g>
					
						<linearGradient id="SVGID_11_" gradientUnits="userSpaceOnUse" x1="11.4072" y1="80.7769" x2="968.5664" y2="80.7769" gradientTransform="matrix(1 0 0 1.04 -2 -0.231)">
						<stop  offset="0" style="stop-color:#004A8A"/>
						<stop  offset="0.3497" style="stop-color:#0071BC"/>
						<stop  offset="0.7055" style="stop-color:#0071BC;stop-opacity:0.11"/>
						<stop  offset="1" style="stop-color:#0071BC;stop-opacity:0.13"/>
					</linearGradient>
					<polygon class="st11" points="653.764,127.851 653.764,91.565 661.831,85.849 653.764,80.712 653.764,51.15 635.526,51.15 
						617.352,35.594 710.982,35.594 692.806,51.15 674.698,51.15 674.698,80.703 666.981,85.692 674.698,91.472 674.698,127.82 
						664.307,135.527 					"/>
					
						<linearGradient id="SVGID_12_" gradientUnits="userSpaceOnUse" x1="11.4072" y1="80.7769" x2="968.5664" y2="80.7769" gradientTransform="matrix(1 0 0 1.04 -2 -0.231)">
						<stop  offset="0" style="stop-color:#004A8A"/>
						<stop  offset="0.3497" style="stop-color:#0071BC"/>
						<stop  offset="0.7055" style="stop-color:#0071BC;stop-opacity:0.11"/>
						<stop  offset="1" style="stop-color:#0071BC;stop-opacity:0.13"/>
					</linearGradient>
					<polygon class="st12" points="710.254,135.028 708.239,135.028 710.254,133.662 710.254,85.416 710.15,85.38 710.254,85.338 
						710.254,36.96 708.239,35.594 710.254,35.594 710.254,35.588 710.263,35.594 795.729,35.594 772.964,51.15 731.18,51.15 
						730.931,50.981 730.931,77.124 731.734,76.805 772.655,76.805 793.976,85.474 772.587,92.358 731.374,92.631 730.931,92.48 
						730.931,119.641 731.18,119.472 772.964,119.472 795.729,135.028 710.26,135.028 710.254,135.032 					"/>
					
						<linearGradient id="SVGID_13_" gradientUnits="userSpaceOnUse" x1="11.4072" y1="80.7769" x2="968.5664" y2="80.7769" gradientTransform="matrix(1 0 0 1.04 -2 -0.231)">
						<stop  offset="0" style="stop-color:#004A8A"/>
						<stop  offset="0.3497" style="stop-color:#0071BC"/>
						<stop  offset="0.7055" style="stop-color:#0071BC;stop-opacity:0.11"/>
						<stop  offset="1" style="stop-color:#0071BC;stop-opacity:0.13"/>
					</linearGradient>
					<polygon class="st13" points="817.529,135.028 806.877,127.749 806.872,127.751 796.607,120.682 796.607,49.808 
						806.872,42.738 806.974,42.808 817.529,35.594 882.082,35.594 859.317,51.15 817.553,51.15 817.284,50.975 817.284,79.596 
						800.638,85.283 817.284,91.896 817.284,119.647 817.553,119.472 859.317,119.472 882.082,135.028 					"/>
					
						<linearGradient id="SVGID_14_" gradientUnits="userSpaceOnUse" x1="11.4072" y1="80.7769" x2="968.5664" y2="80.7769" gradientTransform="matrix(1 0 0 1.04 -2 -0.231)">
						<stop  offset="0" style="stop-color:#004A8A"/>
						<stop  offset="0.3497" style="stop-color:#0071BC"/>
						<stop  offset="0.7055" style="stop-color:#0071BC;stop-opacity:0.11"/>
						<stop  offset="1" style="stop-color:#0071BC;stop-opacity:0.13"/>
					</linearGradient>
					<polygon class="st14" points="945.787,122.699 945.787,92.481 945.469,92.589 904.075,92.629 903.638,92.48 903.638,122.674 
						882.961,136.803 882.961,85.416 882.857,85.38 882.961,85.338 882.961,33.687 903.638,47.815 903.638,77.124 904.441,76.805 
						944.983,76.805 945.787,77.124 945.787,47.884 966.463,33.791 966.463,85.339 966.566,85.379 966.463,85.415 966.463,136.838 
											"/>
				</g>
			</g>
			<g>
				
					<linearGradient id="SVGID_15_" gradientUnits="userSpaceOnUse" x1="11.4072" y1="80.7769" x2="968.5664" y2="80.7769" gradientTransform="matrix(1 0 0 1.04 -2 -0.231)">
					<stop  offset="0" style="stop-color:#004A8A"/>
					<stop  offset="0.3497" style="stop-color:#0071BC"/>
					<stop  offset="0.7055" style="stop-color:#0071BC;stop-opacity:0.11"/>
					<stop  offset="1" style="stop-color:#0071BC;stop-opacity:0.13"/>
				</linearGradient>
				<polygon class="st15" points="653.764,127.851 653.764,91.565 661.831,85.849 653.764,80.712 653.764,51.15 635.526,51.15 
					617.352,35.594 710.982,35.594 692.806,51.15 674.698,51.15 674.698,80.703 666.981,85.692 674.698,91.472 674.698,127.82 
					664.307,135.527 				"/>
				
					<linearGradient id="SVGID_16_" gradientUnits="userSpaceOnUse" x1="11.4072" y1="80.7769" x2="968.5664" y2="80.7769" gradientTransform="matrix(1 0 0 1.04 -2 -0.231)">
					<stop  offset="0" style="stop-color:#004A8A"/>
					<stop  offset="0.3497" style="stop-color:#0071BC"/>
					<stop  offset="0.7055" style="stop-color:#0071BC;stop-opacity:0.11"/>
					<stop  offset="1" style="stop-color:#0071BC;stop-opacity:0.13"/>
				</linearGradient>
				<polygon class="st16" points="710.254,135.028 708.239,135.028 710.254,133.662 710.254,85.416 710.15,85.38 710.254,85.338 
					710.254,36.96 708.239,35.594 710.254,35.594 710.254,35.588 710.263,35.594 795.729,35.594 772.964,51.15 731.18,51.15 
					730.931,50.981 730.931,77.124 731.734,76.805 772.655,76.805 793.976,85.474 772.587,92.358 731.374,92.631 730.931,92.48 
					730.931,119.641 731.18,119.472 772.964,119.472 795.729,135.028 710.26,135.028 710.254,135.032 				"/>
				
					<linearGradient id="SVGID_17_" gradientUnits="userSpaceOnUse" x1="11.4072" y1="80.7769" x2="968.5664" y2="80.7769" gradientTransform="matrix(1 0 0 1.04 -2 -0.231)">
					<stop  offset="0" style="stop-color:#004A8A"/>
					<stop  offset="0.3497" style="stop-color:#0071BC"/>
					<stop  offset="0.7055" style="stop-color:#0071BC;stop-opacity:0.11"/>
					<stop  offset="1" style="stop-color:#0071BC;stop-opacity:0.13"/>
				</linearGradient>
				<polygon class="st17" points="817.529,135.028 806.877,127.749 806.872,127.751 796.607,120.682 796.607,49.808 806.872,42.738 
					806.974,42.808 817.529,35.594 882.082,35.594 859.317,51.15 817.553,51.15 817.284,50.975 817.284,79.596 800.638,85.283 
					817.284,91.896 817.284,119.647 817.553,119.472 859.317,119.472 882.082,135.028 				"/>
				
					<linearGradient id="SVGID_18_" gradientUnits="userSpaceOnUse" x1="11.4072" y1="80.7769" x2="968.5664" y2="80.7769" gradientTransform="matrix(1 0 0 1.04 -2 -0.231)">
					<stop  offset="0" style="stop-color:#004A8A"/>
					<stop  offset="0.3497" style="stop-color:#0071BC"/>
					<stop  offset="0.7055" style="stop-color:#0071BC;stop-opacity:0.11"/>
					<stop  offset="1" style="stop-color:#0071BC;stop-opacity:0.13"/>
				</linearGradient>
				<polygon class="st18" points="945.787,122.699 945.787,92.481 945.469,92.589 904.075,92.629 903.638,92.48 903.638,122.674 
					882.961,136.803 882.961,85.416 882.857,85.38 882.961,85.338 882.961,33.687 903.638,47.815 903.638,77.124 904.441,76.805 
					944.983,76.805 945.787,77.124 945.787,47.884 966.463,33.791 966.463,85.339 966.566,85.379 966.463,85.415 966.463,136.838 
									"/>
			</g>
			<g>
				<g>
					
						<linearGradient id="SVGID_19_" gradientUnits="userSpaceOnUse" x1="11.4072" y1="80.7769" x2="968.5664" y2="80.7769" gradientTransform="matrix(1 0 0 1.04 -2 -0.231)">
						<stop  offset="0" style="stop-color:#004A8A"/>
						<stop  offset="0.3497" style="stop-color:#0071BC"/>
						<stop  offset="0.7055" style="stop-color:#0071BC;stop-opacity:0.11"/>
						<stop  offset="1" style="stop-color:#0071BC;stop-opacity:0.13"/>
					</linearGradient>
					<polygon class="st19" points="653.764,127.851 653.764,91.565 661.831,85.849 653.764,80.712 653.764,51.15 635.526,51.15 
						617.352,35.594 710.982,35.594 692.806,51.15 674.698,51.15 674.698,80.703 666.981,85.692 674.698,91.472 674.698,127.82 
						664.307,135.527 					"/>
					
						<linearGradient id="SVGID_20_" gradientUnits="userSpaceOnUse" x1="11.4072" y1="80.7769" x2="968.5664" y2="80.7769" gradientTransform="matrix(1 0 0 1.04 -2 -0.231)">
						<stop  offset="0" style="stop-color:#004A8A"/>
						<stop  offset="0.3497" style="stop-color:#0071BC"/>
						<stop  offset="0.7055" style="stop-color:#0071BC;stop-opacity:0.11"/>
						<stop  offset="1" style="stop-color:#0071BC;stop-opacity:0.13"/>
					</linearGradient>
					<polygon class="st20" points="710.254,135.028 708.239,135.028 710.254,133.662 710.254,85.416 710.15,85.38 710.254,85.338 
						710.254,36.96 708.239,35.594 710.254,35.594 710.254,35.588 710.263,35.594 795.729,35.594 772.964,51.15 731.18,51.15 
						730.931,50.981 730.931,77.124 731.734,76.805 772.655,76.805 793.976,85.474 772.587,92.358 731.374,92.631 730.931,92.48 
						730.931,119.641 731.18,119.472 772.964,119.472 795.729,135.028 710.26,135.028 710.254,135.032 					"/>
					
						<linearGradient id="SVGID_21_" gradientUnits="userSpaceOnUse" x1="11.4072" y1="80.7769" x2="968.5664" y2="80.7769" gradientTransform="matrix(1 0 0 1.04 -2 -0.231)">
						<stop  offset="0" style="stop-color:#004A8A"/>
						<stop  offset="0.3497" style="stop-color:#0071BC"/>
						<stop  offset="0.7055" style="stop-color:#0071BC;stop-opacity:0.11"/>
						<stop  offset="1" style="stop-color:#0071BC;stop-opacity:0.13"/>
					</linearGradient>
					<polygon class="st21" points="817.529,135.028 806.877,127.749 806.872,127.751 796.607,120.682 796.607,49.808 
						806.872,42.738 806.974,42.808 817.529,35.594 882.082,35.594 859.317,51.15 817.553,51.15 817.284,50.975 817.284,79.596 
						800.638,85.283 817.284,91.896 817.284,119.647 817.553,119.472 859.317,119.472 882.082,135.028 					"/>
					
						<linearGradient id="SVGID_22_" gradientUnits="userSpaceOnUse" x1="11.4072" y1="80.7769" x2="968.5664" y2="80.7769" gradientTransform="matrix(1 0 0 1.04 -2 -0.231)">
						<stop  offset="0" style="stop-color:#004A8A"/>
						<stop  offset="0.3497" style="stop-color:#0071BC"/>
						<stop  offset="0.7055" style="stop-color:#0071BC;stop-opacity:0.11"/>
						<stop  offset="1" style="stop-color:#0071BC;stop-opacity:0.13"/>
					</linearGradient>
					<polygon class="st22" points="945.787,122.699 945.787,92.481 945.469,92.589 904.075,92.629 903.638,92.48 903.638,122.674 
						882.961,136.803 882.961,85.416 882.857,85.38 882.961,85.338 882.961,33.687 903.638,47.815 903.638,77.124 904.441,76.805 
						944.983,76.805 945.787,77.124 945.787,47.884 966.463,33.791 966.463,85.339 966.566,85.379 966.463,85.415 966.463,136.838 
											"/>
				</g>
			</g>
		</g>
		<g>
			<g>
				
					<linearGradient id="SVGID_23_" gradientUnits="userSpaceOnUse" x1="11.4072" y1="80.7769" x2="968.5664" y2="80.7769" gradientTransform="matrix(1 0 0 1.04 -2 -0.231)">
					<stop  offset="0" style="stop-color:#004A8A"/>
					<stop  offset="0.3497" style="stop-color:#0071BC"/>
					<stop  offset="0.7055" style="stop-color:#0071BC;stop-opacity:0.11"/>
					<stop  offset="1" style="stop-color:#0071BC;stop-opacity:0.13"/>
				</linearGradient>
				<path class="st23" d="M53.863,132.551c-29.499,0-44.456-10.192-44.456-30.292c0-9.452,4.763-20.515,14.157-32.881
					c7.755-10.211,16.548-18.858,26.135-25.7C61.474,35.246,72.167,30.97,81.476,30.97c17.747,0,21.472,10.32,21.472,18.978
					c0,1.262-0.234,4.556-2.257,18.531l-0.294,2.032l-1.957-0.281c-4.742-0.681-5.999-1.057-6.602-1.334
					c-1.587-0.794-3.108-2.436-4.708-5.045l-0.482-0.786l0.244-0.897c1.433-5.279,2.159-9.34,2.159-12.072
					c0-2.863-0.897-6.148-7.896-6.148c-8.56,0-17.983,3.963-28.009,11.779c-8.193,6.494-15.245,14.1-20.947,22.596
					c-6.328,9.395-9.536,17.793-9.536,24.965c0,6.733,3.492,11.743,10.674,15.315c5.975,2.985,13.363,4.499,21.961,4.499
					c4.918,0,10.869-0.343,17.686-1.02c2.436-0.195,8.415-0.933,17.81-2.196c1.993-0.275,4.929-1.085,8.719-2.407
					c4.093-1.426,7.134-2.271,9.297-2.586l1.167-0.169l0.708,0.978c0.787,1.086,1.413,2.453,1.913,4.177l0.618,2.126l-30.173,7.26
					C72.141,131.451,62.348,132.551,53.863,132.551z"/>
				
					<linearGradient id="SVGID_24_" gradientUnits="userSpaceOnUse" x1="11.4072" y1="80.7769" x2="968.5664" y2="80.7769" gradientTransform="matrix(1 0 0 1.04 -2 -0.231)">
					<stop  offset="0" style="stop-color:#004A8A"/>
					<stop  offset="0.3497" style="stop-color:#0071BC"/>
					<stop  offset="0.7055" style="stop-color:#0071BC;stop-opacity:0.11"/>
					<stop  offset="1" style="stop-color:#0071BC;stop-opacity:0.13"/>
				</linearGradient>
				<path class="st24" d="M109.825,134.902l0.312-2.363c0.583-4.409,3.42-10.152,8.672-17.556
					c5.265-7.413,8.438-12.887,9.433-16.271c0.796-2.84,1.36-7.721,1.671-14.479c0.112-3.173,0.925-6.504,2.414-9.878
					c2.256-5.192,4.942-7.849,8.207-8.113l0.124-0.01l4.771,0.231l1.836,11.496c0.508,1.483,2.376,2.235,5.553,2.235h5.331
					c0.997-0.099,1.76-0.147,2.33-0.147c0.241-0.004,0.512-0.006,0.778-0.006c12.8,0,20.181,4.974,21.938,14.783l0.593,3.311
					l-27.89-8.34c-5.372,0.113-10.057,3.595-14.315,10.633c-1.653,2.567-4.465,8.753-8.389,18.435
					c-4.313,10.643-11.404,16.04-21.076,16.04H109.825z"/>
				
					<linearGradient id="SVGID_25_" gradientUnits="userSpaceOnUse" x1="11.4072" y1="80.7769" x2="968.5664" y2="80.7769" gradientTransform="matrix(1 0 0 1.04 -2 -0.231)">
					<stop  offset="0" style="stop-color:#004A8A"/>
					<stop  offset="0.3497" style="stop-color:#0071BC"/>
					<stop  offset="0.7055" style="stop-color:#0071BC;stop-opacity:0.11"/>
					<stop  offset="1" style="stop-color:#0071BC;stop-opacity:0.13"/>
				</linearGradient>
				<path class="st25" d="M210.915,130.347c-19.226,0-28.974-5.496-28.974-16.333c0-12.514,9.86-23.243,29.305-31.888
					c6.535-2.96,13.457-5.419,20.562-7.303l0.448-0.119l0.453,0.098c6.819,1.472,11.437,2.574,13.726,3.274
					c3.932,1.207,8.618,4.444,8.618,13.016c0,6.101-4.073,10.902-12.105,14.272c-6.271,2.635-12.752,3.971-19.263,3.971
					c-9.598,0-16.546-1.265-21.185-3.863c-3.892,1.901-5.864,4.179-5.864,6.779c0,5.153,5.878,7.766,17.472,7.766
					c4.707,0,10.286-0.294,16.583-0.874c15.213-1.39,24.563-2.065,28.587-2.065h4.921l-3.526,3.57
					c-3.542,3.586-11.324,6.176-23.793,7.918C228.421,129.748,219.686,130.347,210.915,130.347z M217.262,93.003
					c2.607,2.847,5.877,4.237,9.933,4.237c5.075,0,9.289-1.979,12.83-6.038c-2.518-1.935-5.427-2.879-8.839-2.879
					c-2.975,0-5.687,0.572-8.062,1.701C222.564,90.344,221.185,91.047,217.262,93.003z"/>
				
					<linearGradient id="SVGID_26_" gradientUnits="userSpaceOnUse" x1="11.4072" y1="80.7769" x2="968.5664" y2="80.7769" gradientTransform="matrix(1 0 0 1.04 -2 -0.231)">
					<stop  offset="0" style="stop-color:#004A8A"/>
					<stop  offset="0.3497" style="stop-color:#0071BC"/>
					<stop  offset="0.7055" style="stop-color:#0071BC;stop-opacity:0.11"/>
					<stop  offset="1" style="stop-color:#0071BC;stop-opacity:0.13"/>
				</linearGradient>
				<path class="st26" d="M333.654,139.164c-4.24,0-8.635-2.622-13.438-8.014c-3.055-3.337-5.655-6.972-7.732-10.812
					c-8.025,3.505-13.616,5.842-16.628,6.951c-8.058,2.908-14.668,4.381-19.661,4.381c-12.074,0-14.609-7.523-14.609-13.835
					c0-13.334,7.829-25.294,23.269-35.549c4.953-3.272,11.706-6.834,20.076-10.59c10.247-4.564,17.396-6.782,21.861-6.782
					c3.435,0,6.665,1.656,9.601,4.92c2.899,3.228,4.37,6.524,4.37,9.796c0,5.799-2.352,13.072-7.19,22.234
					c-6.021,11.407-6.649,13.801-6.698,14.264c0.002,5.09,1.008,7.283,1.853,8.215c0.268,0.308,2.05,1.783,13.534,3.631l2.75,0.443
					l-0.896,1.799v4.833h-2.921C339,137.783,336.476,139.164,333.654,139.164z M326.312,77.155c-9.266,0-17.026,1.926-23.066,5.724
					c-5.81,3.63-11.923,8.583-18.176,14.721c-9.507,9.328-11.503,14.553-11.503,17.295c0,1.97,0.889,3.4,2.799,4.499
					c1.917,1.094,4.333,1.65,7.172,1.65c8.716,0,16.276-2.844,22.468-8.452c1.019-0.938,4.167-4.593,13.311-16.62
					c4.514-5.993,9.062-9.293,13.535-9.824c0.901-2.047,1.356-3.989,1.356-5.784C334.208,77.712,329.914,77.155,326.312,77.155z"/>
				
					<linearGradient id="SVGID_27_" gradientUnits="userSpaceOnUse" x1="11.4072" y1="80.7769" x2="968.5664" y2="80.7769" gradientTransform="matrix(1 0 0 1.04 -2 -0.231)">
					<stop  offset="0" style="stop-color:#004A8A"/>
					<stop  offset="0.3497" style="stop-color:#0071BC"/>
					<stop  offset="0.7055" style="stop-color:#0071BC;stop-opacity:0.11"/>
					<stop  offset="1" style="stop-color:#0071BC;stop-opacity:0.13"/>
				</linearGradient>
				<path class="st27" d="M378.502,134.461c-25.156,0-37.912-6.138-37.912-18.244c0-7.013,6.094-16.678,18.631-29.545l10.497-10.788
					l-1.053-0.055c-0.116-0.004-0.259-0.008-0.404-0.008c-2.071,0-4.87,0.565-8.318,1.68c-10.575,3.469-13.208,3.914-14.32,3.914
					c-2.191,0-4.246-0.63-6.107-1.872c-2.673-1.781-3.234-4.053-3.234-5.645c0-7.811,12.197-7.811,16.205-7.811
					c0.974,0,2.365,0.049,4.252,0.149c1.752,0.096,3.113,0.145,4.047,0.145c7.758,0,14.214-1.22,19.187-3.627
					c4.905-2.371,9.329-6.576,13.149-12.497c1.337-2.084,4.579-8.155,9.631-18.038l0.564-1.104h1.202
					c1.992,0,3.928,1.137,5.755,3.38c1.769,2.171,2.629,4.149,2.629,6.047c0,2.831-1.014,5.968-3.013,9.324
					c-0.472,0.808-1.883,2.841-8.385,10.862c1.985,1.212,4.01,2.403,6.044,3.554l0.116,0.065l0.106,0.081
					c3.592,2.72,5.207,5.938,4.799,9.563l-0.341,3.455h-1.805c-0.364,0-0.439,0-7.874-2.132c-2.898-0.828-5.137-1.248-6.651-1.248
					c-3.63,0-10.722,2.84-23.892,16.372c-13.163,13.522-15.925,20.443-15.925,23.867c0,4.573,6.785,7.093,12.477,8.402
					c5.782,1.333,12.403,2.008,19.679,2.008c2.782,0,5.65-0.192,8.527-0.571l2.833-0.373l-0.54,2.481
					c0.117,0.206,0.371,0.597,0.904,1.234l1.962,2.344l-2.832,0.993C392.214,133.238,385.287,134.461,378.502,134.461z"/>
				
					<linearGradient id="SVGID_28_" gradientUnits="userSpaceOnUse" x1="11.4072" y1="80.7769" x2="968.5664" y2="80.7769" gradientTransform="matrix(1 0 0 1.04 -2 -0.231)">
					<stop  offset="0" style="stop-color:#004A8A"/>
					<stop  offset="0.3497" style="stop-color:#0071BC"/>
					<stop  offset="0.7055" style="stop-color:#0071BC;stop-opacity:0.11"/>
					<stop  offset="1" style="stop-color:#0071BC;stop-opacity:0.13"/>
				</linearGradient>
				<path class="st28" d="M412.731,125.351v-2.08c0-0.362-0.062-1.089-0.354-2.5c-0.299-1.422-0.444-2.528-0.444-3.377
					c0-2.588,1.038-5.417,3.084-8.406c3.135-4.643,3.788-5.877,3.921-6.179c0.873-2.505,2.541-6.862,4.957-12.951
					c1.961-4.677,5.086-8.625,9.302-11.771l1.297-0.967l1.195,1.1c3.778,3.478,5.462,6.043,5.462,8.317c0,0.975,0,2.79-9.109,24.205
					c-0.746,1.763-1.866,4.367-3.358,7.803c-1.556,3.226-3.613,5.258-6.152,6.117c-0.887,0.297-2.654,0.69-7.801,0.69H412.731z
					 M446.494,53.498c-7.851,0-9.023-4.618-9.023-7.37c0-2.054,0.648-4.713,1.982-8.129c1.417-3.634,1.79-5.496,1.853-6.418
					l0.219-3.19l2.715,1.501c1.018,0.563,2.617,2.075,6.749,8.987c0.11,0.112,0.639,0.641,2.527,2.27
					c1.746,1.475,2.639,3.155,2.639,4.98C456.155,48.88,454.899,53.498,446.494,53.498z"/>
				
					<linearGradient id="SVGID_29_" gradientUnits="userSpaceOnUse" x1="11.4072" y1="80.7769" x2="968.5664" y2="80.7769" gradientTransform="matrix(1 0 0 1.04 -2 -0.231)">
					<stop  offset="0" style="stop-color:#004A8A"/>
					<stop  offset="0.3497" style="stop-color:#0071BC"/>
					<stop  offset="0.7055" style="stop-color:#0071BC;stop-opacity:0.11"/>
					<stop  offset="1" style="stop-color:#0071BC;stop-opacity:0.13"/>
				</linearGradient>
				<path class="st29" d="M468.836,131.964c-4.626,0-10.14-2.477-10.14-14.276c0-1.447,0.11-3.439,0.327-5.919
					c0.206-2.753,0.311-4.676,0.311-5.689c0.096-2.806-0.93-6.97-3.047-12.449c-2.353-6.083-3.497-10.615-3.497-13.854
					c0-2.366,0.649-4.583,1.931-6.588c1.431-2.242,3.607-3.427,6.294-3.427c4.724,0,7.986,5.861,10.265,18.446l3.307,18.264
					c3.08-3.153,7.78-8.146,14.035-14.913c3.948-4.223,7.467-7.811,10.465-10.67l26.121-24.499h5.801v2.08
					c0,7.504-5.159,15.346-15.771,23.974l-22.467,18.353c-0.183,0.293-0.813,1.421-2.479,5.256l-5.753,12.947
					C480.684,127.604,475.402,131.964,468.836,131.964z"/>
				
					<linearGradient id="SVGID_30_" gradientUnits="userSpaceOnUse" x1="11.4072" y1="80.7769" x2="968.5664" y2="80.7769" gradientTransform="matrix(1 0 0 1.04 -2 -0.231)">
					<stop  offset="0" style="stop-color:#004A8A"/>
					<stop  offset="0.3497" style="stop-color:#0071BC"/>
					<stop  offset="0.7055" style="stop-color:#0071BC;stop-opacity:0.11"/>
					<stop  offset="1" style="stop-color:#0071BC;stop-opacity:0.13"/>
				</linearGradient>
				<path class="st30" d="M543.691,130.347c-19.227,0-28.975-5.496-28.975-16.333c0-12.514,9.859-23.243,29.306-31.888
					c6.537-2.961,13.459-5.42,20.562-7.303l0.448-0.119l0.452,0.098c6.82,1.473,11.438,2.574,13.725,3.274
					c3.933,1.207,8.618,4.444,8.618,13.016c0,6.1-4.073,10.902-12.105,14.272c-6.271,2.635-12.752,3.971-19.263,3.971
					c-9.597,0-16.546-1.265-21.185-3.863c-3.893,1.902-5.864,4.179-5.864,6.779c0,5.153,5.879,7.766,17.473,7.766
					c4.707,0,10.286-0.294,16.582-0.874c15.213-1.39,24.563-2.065,28.587-2.065h4.921l-3.525,3.57
					c-3.542,3.586-11.324,6.176-23.793,7.918C561.198,129.748,552.463,130.347,543.691,130.347z M550.038,93.003
					c2.606,2.847,5.877,4.237,9.934,4.237c5.074,0,9.288-1.979,12.829-6.038c-2.518-1.935-5.427-2.879-8.839-2.879
					c-2.975,0-5.687,0.572-8.062,1.701C555.343,90.343,553.965,91.046,550.038,93.003z"/>
			</g>
		</g>
	</g>
	<g>
		<g>
			<g>
				<g>
					<linearGradient id="SVGID_31_" gradientUnits="userSpaceOnUse" x1="13.4072" y1="81.3813" x2="966.4629" y2="81.3813">
						<stop  offset="0" style="stop-color:#00C9FF"/>
						<stop  offset="1" style="stop-color:#004A8A"/>
					</linearGradient>
					<path class="st31" d="M707.404,36.447l-13.315,10.958h-18.098l-9.438-6.371l-10.083,6.371h-18.228l-13.314-10.958H707.404z
						 M674.698,76.709l-8.402,5.224l-8.532-5.224V49.698l8.79-5.988l8.145,5.988V76.709z M674.698,122.096l-8.402,5.992
						l-8.532-5.974V89.323l8.79-5.988l8.145,5.865V122.096z"/>
					<linearGradient id="SVGID_32_" gradientUnits="userSpaceOnUse" x1="13.4072" y1="81.3813" x2="966.4629" y2="81.3813">
						<stop  offset="0" style="stop-color:#00C9FF"/>
						<stop  offset="1" style="stop-color:#004A8A"/>
					</linearGradient>
					<path class="st32" d="M730.931,74.416l-16.677,6.371V38.189l16.677,11.178V74.416z M730.931,115.136l-16.677,11.176V83.59
						l16.677,5.479V115.136z M791.042,36.447l-16.677,10.958h-40.591l-16.806-10.958H791.042z M791.042,128.057h-74.073
						l16.806-10.958h40.591L791.042,128.057z M789.921,82.188l-15.643,4.841l-40.591,0.259l-15.562-5.112l15.978-6.104h40.175
						L789.921,82.188z"/>
					<linearGradient id="SVGID_33_" gradientUnits="userSpaceOnUse" x1="13.4072" y1="81.3813" x2="966.4629" y2="81.3813">
						<stop  offset="0" style="stop-color:#00C9FF"/>
						<stop  offset="1" style="stop-color:#004A8A"/>
					</linearGradient>
					<path class="st33" d="M817.284,75.308l-16.677,5.479V49.188l8.273-5.479l8.403,5.479V75.308z M817.284,115.188l-8.403,5.479
						l-8.273-5.479V83.59l16.677,6.371V115.188z M877.396,36.447l-16.677,10.958h-40.591l-8.532-5.351l8.532-5.606H877.396z
						 M877.396,128.057h-57.268l-8.532-5.606l8.532-5.352h40.591L877.396,128.057z"/>
					<linearGradient id="SVGID_34_" gradientUnits="userSpaceOnUse" x1="13.4072" y1="81.3813" x2="966.4629" y2="81.3813">
						<stop  offset="0" style="stop-color:#00C9FF"/>
						<stop  offset="1" style="stop-color:#004A8A"/>
					</linearGradient>
					<path class="st34" d="M903.638,74.416l-16.677,6.371V36.32l16.677,10.957V74.416z M903.638,117.099l-16.677,10.958V83.59
						l16.677,5.479V117.099z M962.591,82.176l-15.443,5.075l-40.753,0.038l-15.562-5.112l15.978-6.104h39.804L962.591,82.176z
						 M966.463,80.787l-16.676-6.371V47.345l16.676-10.93V80.787z M966.463,128.088l-16.676-10.965V89.068l16.676-5.479V128.088z"/>
				</g>
			</g>
			<g>
				<linearGradient id="SVGID_35_" gradientUnits="userSpaceOnUse" x1="13.4072" y1="81.3813" x2="966.4629" y2="81.3813">
					<stop  offset="0" style="stop-color:#00C9FF"/>
					<stop  offset="1" style="stop-color:#004A8A"/>
				</linearGradient>
				<path class="st35" d="M707.404,36.447l-13.315,10.958h-18.098l-9.438-6.371l-10.083,6.371h-18.228l-13.314-10.958H707.404z
					 M674.698,76.709l-8.402,5.224l-8.532-5.224V49.698l8.79-5.988l8.145,5.988V76.709z M674.698,122.096l-8.402,5.992l-8.532-5.974
					V89.323l8.79-5.988l8.145,5.865V122.096z"/>
				<linearGradient id="SVGID_36_" gradientUnits="userSpaceOnUse" x1="13.4072" y1="81.3813" x2="966.4629" y2="81.3813">
					<stop  offset="0" style="stop-color:#00C9FF"/>
					<stop  offset="1" style="stop-color:#004A8A"/>
				</linearGradient>
				<path class="st36" d="M730.931,74.416l-16.677,6.371V38.189l16.677,11.178V74.416z M730.931,115.136l-16.677,11.176V83.59
					l16.677,5.479V115.136z M791.042,36.447l-16.677,10.958h-40.591l-16.806-10.958H791.042z M791.042,128.057h-74.073
					l16.806-10.958h40.591L791.042,128.057z M789.921,82.188l-15.643,4.841l-40.591,0.259l-15.562-5.112l15.978-6.104h40.175
					L789.921,82.188z"/>
				<linearGradient id="SVGID_37_" gradientUnits="userSpaceOnUse" x1="13.4072" y1="81.3813" x2="966.4629" y2="81.3813">
					<stop  offset="0" style="stop-color:#00C9FF"/>
					<stop  offset="1" style="stop-color:#004A8A"/>
				</linearGradient>
				<path class="st37" d="M817.284,75.308l-16.677,5.479V49.188l8.273-5.479l8.403,5.479V75.308z M817.284,115.188l-8.403,5.479
					l-8.273-5.479V83.59l16.677,6.371V115.188z M877.396,36.447l-16.677,10.958h-40.591l-8.532-5.351l8.532-5.606H877.396z
					 M877.396,128.057h-57.268l-8.532-5.606l8.532-5.352h40.591L877.396,128.057z"/>
				<linearGradient id="SVGID_38_" gradientUnits="userSpaceOnUse" x1="13.4072" y1="81.3813" x2="966.4629" y2="81.3813">
					<stop  offset="0" style="stop-color:#00C9FF"/>
					<stop  offset="1" style="stop-color:#004A8A"/>
				</linearGradient>
				<path class="st38" d="M903.638,74.416l-16.677,6.371V36.32l16.677,10.957V74.416z M903.638,117.099l-16.677,10.958V83.59
					l16.677,5.479V117.099z M962.591,82.176l-15.443,5.075l-40.753,0.038l-15.562-5.112l15.978-6.104h39.804L962.591,82.176z
					 M966.463,80.787l-16.676-6.371V47.345l16.676-10.93V80.787z M966.463,128.088l-16.676-10.965V89.068l16.676-5.479V128.088z"/>
			</g>
			<g>
				<g>
					<linearGradient id="SVGID_39_" gradientUnits="userSpaceOnUse" x1="13.4072" y1="81.3813" x2="966.4629" y2="81.3813">
						<stop  offset="0" style="stop-color:#00C9FF"/>
						<stop  offset="1" style="stop-color:#004A8A"/>
					</linearGradient>
					<path class="st39" d="M707.404,36.447l-13.315,10.958h-18.098l-9.438-6.371l-10.083,6.371h-18.228l-13.314-10.958H707.404z
						 M674.698,76.709l-8.402,5.224l-8.532-5.224V49.698l8.79-5.988l8.145,5.988V76.709z M674.698,122.096l-8.402,5.992
						l-8.532-5.974V89.323l8.79-5.988l8.145,5.865V122.096z"/>
					<linearGradient id="SVGID_40_" gradientUnits="userSpaceOnUse" x1="13.4072" y1="81.3813" x2="966.4629" y2="81.3813">
						<stop  offset="0" style="stop-color:#00C9FF"/>
						<stop  offset="1" style="stop-color:#004A8A"/>
					</linearGradient>
					<path class="st40" d="M730.931,74.416l-16.677,6.371V38.189l16.677,11.178V74.416z M730.931,115.136l-16.677,11.176V83.59
						l16.677,5.479V115.136z M791.042,36.447l-16.677,10.958h-40.591l-16.806-10.958H791.042z M791.042,128.057h-74.073
						l16.806-10.958h40.591L791.042,128.057z M789.921,82.188l-15.643,4.841l-40.591,0.259l-15.562-5.112l15.978-6.104h40.175
						L789.921,82.188z"/>
					<linearGradient id="SVGID_41_" gradientUnits="userSpaceOnUse" x1="13.4072" y1="81.3813" x2="966.4629" y2="81.3813">
						<stop  offset="0" style="stop-color:#00C9FF"/>
						<stop  offset="1" style="stop-color:#004A8A"/>
					</linearGradient>
					<path class="st41" d="M817.284,75.308l-16.677,5.479V49.188l8.273-5.479l8.403,5.479V75.308z M817.284,115.188l-8.403,5.479
						l-8.273-5.479V83.59l16.677,6.371V115.188z M877.396,36.447l-16.677,10.958h-40.591l-8.532-5.351l8.532-5.606H877.396z
						 M877.396,128.057h-57.268l-8.532-5.606l8.532-5.352h40.591L877.396,128.057z"/>
					<linearGradient id="SVGID_42_" gradientUnits="userSpaceOnUse" x1="13.4072" y1="81.3813" x2="966.4629" y2="81.3813">
						<stop  offset="0" style="stop-color:#00C9FF"/>
						<stop  offset="1" style="stop-color:#004A8A"/>
					</linearGradient>
					<path class="st42" d="M903.638,74.416l-16.677,6.371V36.32l16.677,10.957V74.416z M903.638,117.099l-16.677,10.958V83.59
						l16.677,5.479V117.099z M962.591,82.176l-15.443,5.075l-40.753,0.038l-15.562-5.112l15.978-6.104h39.804L962.591,82.176z
						 M966.463,80.787l-16.676-6.371V47.345l16.676-10.93V80.787z M966.463,128.088l-16.676-10.965V89.068l16.676-5.479V128.088z"/>
				</g>
			</g>
		</g>
		<g>
			<g>
				<linearGradient id="SVGID_43_" gradientUnits="userSpaceOnUse" x1="13.4072" y1="81.3813" x2="966.4629" y2="81.3813">
					<stop  offset="0" style="stop-color:#00C9FF"/>
					<stop  offset="1" style="stop-color:#004A8A"/>
				</linearGradient>
				<path class="st43" d="M112.684,116.068l-28.091,6.499c-10.749,2.071-20.325,3.108-28.729,3.108
					c-28.306,0-42.456-9.042-42.456-27.127c0-8.665,4.574-18.792,13.726-30.377c7.662-9.7,16.226-17.802,25.697-24.302
					c11.492-7.912,21.707-11.868,30.645-11.868c12.98,0,19.472,5.417,19.472,16.248c0,1.791-0.746,7.63-2.234,17.52
					c-3.407-0.47-5.427-0.848-6.065-1.13c-1.172-0.565-2.449-1.93-3.831-4.097c1.489-5.274,2.234-9.325,2.234-12.151
					c0-5.274-3.299-7.912-9.896-7.912c-9.045,0-18.781,3.91-29.208,11.727c-8.407,6.407-15.537,13.8-21.388,22.183
					c-6.599,9.42-9.896,17.802-9.896,25.149c0,7.254,3.935,12.764,11.811,16.531c6.277,3.016,13.886,4.521,22.824,4.521
					c5,0,10.958-0.329,17.876-0.989c2.446-0.188,8.404-0.895,17.876-2.12c2.127-0.283,5.16-1.082,9.098-2.402
					c3.935-1.318,6.916-2.119,8.938-2.402C111.726,113.524,112.257,114.655,112.684,116.068z"/>
				<linearGradient id="SVGID_44_" gradientUnits="userSpaceOnUse" x1="13.4072" y1="81.3813" x2="966.4629" y2="81.3813">
					<stop  offset="0" style="stop-color:#00C9FF"/>
					<stop  offset="1" style="stop-color:#004A8A"/>
				</linearGradient>
				<path class="st44" d="M183.23,91.766l-25.059-7.206c-6.173,0-11.599,3.722-16.28,11.162c-1.704,2.543-4.549,8.548-8.539,18.014
					s-10.402,14.2-19.233,14.2c0.531-3.861,3.297-9.184,8.3-15.966c5.427-7.347,8.671-12.762,9.736-16.248
					c0.851-2.918,1.437-7.722,1.756-14.412c0.104-2.826,0.851-5.744,2.234-8.76c1.916-4.239,4.095-6.451,6.544-6.641l3.033,0.142
					l1.596,9.607c0.743,2.451,3.245,3.673,7.501,3.673h5.427c0.958-0.093,1.701-0.141,2.234-0.141
					C174.716,79.004,181.634,83.196,183.23,91.766z"/>
				<linearGradient id="SVGID_45_" gradientUnits="userSpaceOnUse" x1="13.4072" y1="81.3813" x2="966.4629" y2="81.3813">
					<stop  offset="0" style="stop-color:#00C9FF"/>
					<stop  offset="1" style="stop-color:#004A8A"/>
				</linearGradient>
				<path class="st45" d="M261.276,114.796c-3.192,3.108-10.749,5.464-22.665,7.064c-8.407,1.13-16.974,1.696-25.697,1.696
					c-17.983,0-26.974-4.568-26.974-13.705c0-11.208,9.362-20.816,28.091-28.823c6.489-2.826,13.248-5.133,20.27-6.923
					c6.809,1.413,11.333,2.451,13.567,3.108c4.788,1.413,7.183,4.945,7.183,10.597c0,4.994-3.619,8.95-10.854,11.868
					c-6.065,2.451-12.238,3.673-18.515,3.673c-9.791,0-16.814-1.318-21.068-3.956c-5.322,2.261-7.98,5.182-7.98,8.76
					c0,6.312,6.489,9.467,19.472,9.467c4.788,0,10.375-0.283,16.759-0.848C247.869,115.456,257.338,114.796,261.276,114.796z
					 M244.836,87.668c-3.192-3.013-7.078-4.521-11.651-4.521c-3.299,0-6.28,0.614-8.938,1.837c-0.107,0.095-2.821,1.413-8.14,3.956
					c3.192,4.521,7.554,6.782,13.088,6.782C235.472,95.722,240.687,93.038,244.836,87.668z"/>
				<linearGradient id="SVGID_46_" gradientUnits="userSpaceOnUse" x1="13.4072" y1="81.3813" x2="966.4629" y2="81.3813">
					<stop  offset="0" style="stop-color:#00C9FF"/>
					<stop  offset="1" style="stop-color:#004A8A"/>
				</linearGradient>
				<path class="st46" d="M343.954,125.251c-2.342,4.521-5.107,6.782-8.299,6.782c-3.619,0-7.609-2.355-11.971-7.064
					c-3.407-3.579-6.172-7.439-8.3-11.585c-8.938,3.768-15.003,6.217-18.195,7.347c-7.876,2.733-14.205,4.098-18.994,4.098
					c-8.407,0-12.609-3.766-12.609-11.303c0-12.151,7.447-22.981,22.345-32.496c4.893-3.108,11.492-6.451,19.792-10.032
					c9.896-4.239,16.918-6.358,21.068-6.358c2.873,0,5.586,1.367,8.14,4.097c2.554,2.733,3.831,5.417,3.831,8.054
					c0,5.181-2.314,11.987-6.943,20.416c-4.628,8.431-6.943,13.306-6.943,14.624c0,4.521,0.798,7.629,2.394,9.325
					C330.546,122.567,335.439,123.934,343.954,125.251z M338.208,77.496c0-3.391-3.3-5.086-9.896-5.086
					c-9.684,0-17.716,1.932-24.101,5.792c-5.96,3.581-12.13,8.385-18.515,14.412c-8.087,7.629-12.13,13.659-12.13,18.085
					c0,2.638,1.277,4.663,3.831,6.075c2.234,1.226,4.948,1.837,8.14,1.837c9.257,0,17.183-2.872,23.782-8.619
					c1.596-1.413,6.117-6.828,13.566-16.248c4.574-5.839,8.991-8.76,13.248-8.76C337.515,82.348,338.208,79.852,338.208,77.496z
					 M343.475,128.077v-0.424h0.319v-0.424h-0.319v-0.848h0.638v0.282h-0.319v0.283h0.319v1.13H343.475z"/>
				<linearGradient id="SVGID_47_" gradientUnits="userSpaceOnUse" x1="13.4072" y1="81.3813" x2="966.4629" y2="81.3813">
					<stop  offset="0" style="stop-color:#00C9FF"/>
					<stop  offset="1" style="stop-color:#004A8A"/>
				</linearGradient>
				<path class="st47" d="M412.903,39.207c0,2.356-0.905,4.994-2.713,7.913c-0.746,1.225-3.99,5.228-9.736,12.009
					c2.659,1.603,5.372,3.157,8.14,4.663c2.978,2.168,4.31,4.616,3.99,7.347l-0.16,1.554c-0.107,0-2.554-0.658-7.342-1.978
					c-3.087-0.848-5.482-1.271-7.183-1.271c-5.853,0-14.285,5.439-25.298,16.319c-11.013,10.879-16.52,19.003-16.52,24.372
					c0,4.616,4.681,7.961,14.045,10.032c5.958,1.32,12.662,1.978,20.111,1.978c2.873,0,5.798-0.188,8.778-0.565
					c-0.107,0.472,0.372,1.32,1.437,2.543c-6.704,2.261-13.354,3.391-19.951,3.391c-23.941,0-35.912-5.179-35.912-15.542
					c0-6.122,6.01-15.118,18.036-26.986l13.726-13.564l-5.586-0.283c-2.342-0.092-5.482,0.473-9.417,1.696
					c-7.769,2.45-12.345,3.673-13.727,3.673c-1.811,0-3.486-0.495-5.027-1.483c-1.544-0.989-2.314-2.236-2.314-3.744
					c0-3.673,4.733-5.51,14.205-5.51c0.958,0,2.339,0.048,4.15,0.141c1.808,0.095,3.192,0.142,4.15,0.142
					c8.085,0,14.764-1.223,20.031-3.674c5.267-2.448,9.921-6.687,13.966-12.716c1.382-2.071,4.628-7.912,9.736-17.52
					c1.381,0,2.793,0.848,4.229,2.543S412.903,37.889,412.903,39.207z"/>
				<linearGradient id="SVGID_48_" gradientUnits="userSpaceOnUse" x1="13.4072" y1="81.3813" x2="966.4629" y2="81.3813">
					<stop  offset="0" style="stop-color:#00C9FF"/>
					<stop  offset="1" style="stop-color:#004A8A"/>
				</linearGradient>
				<path class="st48" d="M441.151,83.43c0,1.508-2.98,8.996-8.938,22.465c-0.746,1.695-1.863,4.192-3.352,7.488
					c-1.277,2.543-2.928,4.146-4.948,4.804c-1.172,0.377-3.566,0.565-7.182,0.565c0-0.658-0.135-1.601-0.399-2.826
					c-0.267-1.223-0.399-2.166-0.399-2.826c0-2.071,0.903-4.38,2.713-6.923c2.447-3.483,3.831-5.603,4.15-6.358
					c0.851-2.353,2.499-6.499,4.948-12.433c1.808-4.144,4.681-7.63,8.619-10.456C439.555,79.756,441.151,81.924,441.151,83.43z
					 M456.155,44.576c0,3.391-2.554,5.086-7.661,5.086c-4.684,0-7.023-1.695-7.023-5.086c0-1.695,0.611-4.049,1.835-7.064
					c1.222-3.013,1.888-5.274,1.995-6.782c1.062,0.565,3.085,3.25,6.065,8.053c0.212,0.283,1.17,1.13,2.873,2.543
					C455.516,42.364,456.155,43.445,456.155,44.576z"/>
				<linearGradient id="SVGID_49_" gradientUnits="userSpaceOnUse" x1="13.4072" y1="81.3813" x2="966.4629" y2="81.3813">
					<stop  offset="0" style="stop-color:#00C9FF"/>
					<stop  offset="1" style="stop-color:#004A8A"/>
				</linearGradient>
				<path class="st49" d="M531.009,56.444c0,6.5-5.003,13.659-15.003,21.476l-22.665,17.802c-0.426,0.472-1.384,2.355-2.873,5.651
					l-5.746,12.434c-3.511,7.537-8.14,11.303-13.886,11.303c-5.427,0-8.14-3.908-8.14-11.727c0-1.318,0.104-3.155,0.319-5.51
					c0.212-2.731,0.319-4.614,0.319-5.652c0.105-2.918-0.958-7.157-3.192-12.716c-2.235-5.557-3.352-9.749-3.352-12.575
					c0-1.883,0.531-3.625,1.596-5.228c1.062-1.601,2.606-2.402,4.628-2.402c3.512,0,6.277,5.369,8.3,16.107l3.99,21.193
					c2.659-2.449,8.245-8.1,16.759-16.955c3.936-4.048,7.395-7.439,10.375-10.172l25.538-23.03H531.009z"/>
				<linearGradient id="SVGID_50_" gradientUnits="userSpaceOnUse" x1="13.4072" y1="81.3813" x2="966.4629" y2="81.3813">
					<stop  offset="0" style="stop-color:#00C9FF"/>
					<stop  offset="1" style="stop-color:#004A8A"/>
				</linearGradient>
				<path class="st50" d="M594.053,114.796c-3.192,3.108-10.749,5.464-22.664,7.064c-8.407,1.13-16.974,1.696-25.697,1.696
					c-17.983,0-26.975-4.568-26.975-13.705c0-11.208,9.362-20.816,28.092-28.823c6.489-2.826,13.247-5.133,20.271-6.923
					c6.808,1.413,11.332,2.451,13.566,3.108c4.788,1.413,7.183,4.945,7.183,10.597c0,4.994-3.619,8.95-10.854,11.868
					c-6.065,2.451-12.237,3.673-18.515,3.673c-9.791,0-16.813-1.318-21.068-3.956c-5.322,2.261-7.98,5.182-7.98,8.76
					c0,6.312,6.489,9.467,19.473,9.467c4.788,0,10.374-0.283,16.759-0.848C580.646,115.456,590.115,114.796,594.053,114.796z
					 M577.613,87.668c-3.192-3.013-7.078-4.521-11.651-4.521c-3.3,0-6.28,0.614-8.938,1.837c-0.107,0.095-2.82,1.413-8.14,3.956
					c3.191,4.521,7.554,6.782,13.088,6.782C568.248,95.722,573.463,93.038,577.613,87.668z"/>
			</g>
		</g>
	</g>
</g>
<g>
	<g>
		<g>
			<g>
				<path class="st9" d="M348.612,243.396c-0.103,0.023-0.269,0.059-0.5,0.105s-0.435,0.069-0.614,0.069
					c-0.973,0-1.459-0.466-1.459-1.399v-0.908v-21.332c0-0.84,0.172-1.323,0.515-1.452c0.343-0.127,0.607-0.191,0.792-0.191
					c0.687,0,1.069,0.257,1.148,0.77l0.119,0.874v0.489l0.871-0.419c2.717-1.236,5.304-1.854,7.758-1.854
					c3.167,0,5.727,0.816,7.68,2.448s2.929,3.707,2.929,6.225c0,1.259-0.371,2.752-1.113,4.477c-0.743,1.726-2.24,3.51-4.492,5.351
					c-2.252,1.842-5.286,3.566-9.102,5.176l-2.464,0.944l-0.159,0.034L348.612,243.396z M348.612,240.948
					c0.448-0.116,0.923-0.249,1.425-0.401c0.501-0.151,1.247-0.403,2.237-0.752c0.99-0.35,2.355-1.02,4.097-2.011
					s3.298-2.146,4.671-3.463c1.372-1.316,2.388-2.599,3.048-3.847c0.659-1.246,0.989-2.418,0.989-3.514
					c0-1.655-0.62-3.09-1.86-4.302c-1.241-1.212-2.461-1.883-3.662-2.011c-1.201-0.128-1.927-0.198-2.177-0.21
					c-0.251-0.011-0.482-0.018-0.693-0.018h-0.593l-0.832,0.104c-0.977,0.117-1.914,0.321-2.811,0.612
					c-0.897,0.292-1.9,0.74-3.008,1.346l-0.832,0.49V240.948z"/>
				<path class="st9" d="M372.561,243.501c-1.241,0-1.979-0.076-2.217-0.229c-0.237-0.15-0.356-0.646-0.356-1.485v-21.786
					c0-0.747,0.105-1.254,0.316-1.522c0.211-0.267,0.633-0.401,1.267-0.401h0.989h13.301c0.95,0,1.504,0.146,1.663,0.437
					c0.158,0.292,0.237,0.543,0.237,0.752c0,0.561-0.277,0.887-0.831,0.979l-1.069,0.104h-13.301v15.562h13.38
					c0.95,0,1.498,0.152,1.643,0.454c0.145,0.304,0.218,0.537,0.218,0.699c0,0.583-0.277,0.922-0.832,1.015l-1.029,0.104h-13.38
					v3.043h21.97c0.554,0,0.957,0.048,1.208,0.142c0.25,0.096,0.429,0.244,0.534,0.444c0.105,0.201,0.159,0.409,0.159,0.621
					c0,0.568-0.198,0.889-0.594,0.96c-0.396,0.07-0.832,0.106-1.307,0.106H372.561z"/>
				<path class="st9" d="M401.893,229.373c-0.475-0.256-0.713-0.57-0.713-0.944c0-0.396,0.277-0.874,0.832-1.434l7.838-7.938
					c0.396-0.396,0.778-0.596,1.148-0.596c0.343,0,0.646,0.105,0.911,0.315c0.263,0.21,0.396,0.478,0.396,0.804
					c0,0.141-0.027,0.274-0.079,0.403c-0.053,0.128-0.225,0.344-0.515,0.646l-5.578,5.808c0.369-0.07,0.686-0.129,0.95-0.177
					c0.264-0.047,0.488-0.07,0.673-0.07l2.335-0.21c3.298,0,5.917,0.437,7.856,1.311c1.939,0.875,3.344,1.896,4.215,3.061
					c0.871,1.166,1.306,2.413,1.306,3.742c0,1.981-0.812,3.712-2.435,5.192c-1.623,1.481-3.411,2.554-5.363,3.218
					c-1.954,0.664-4.117,0.997-6.493,0.997c-2.295,0-4.255-0.233-5.878-0.7c-1.623-0.466-2.923-0.909-3.899-1.328
					c-0.977-0.42-1.761-0.799-2.355-1.138c-0.593-0.337-1.036-0.646-1.326-0.926c-0.29-0.28-0.436-0.548-0.436-0.805
					c-0.026-0.303,0.079-0.564,0.317-0.787c0.237-0.221,0.54-0.331,0.91-0.331c0.238,0.022,0.461,0.075,0.673,0.157
					c0.211,0.082,0.515,0.25,0.911,0.506l1.821,1.015c0.791,0.396,1.9,0.793,3.325,1.189l2.256,0.524
					c0.475,0.094,1.049,0.164,1.722,0.209c0.673,0.048,1.287,0.07,1.84,0.07c1.9,0,3.648-0.256,5.245-0.769s3.055-1.317,4.374-2.414
					c1.319-1.096,1.98-2.4,1.98-3.916c0-0.979-0.337-1.894-1.01-2.746c-0.673-0.85-1.538-1.491-2.593-1.923
					c-1.055-0.431-2.157-0.729-3.305-0.892c-1.148-0.163-2.422-0.245-3.82-0.245c-0.581,0-1.122,0.035-1.623,0.105
					c-0.501,0.069-1.162,0.175-1.979,0.315l-0.95,0.174l-0.673,0.175l-1.504,0.385c-0.317,0.07-0.568,0.105-0.752,0.105
					C402.262,229.513,402.077,229.466,401.893,229.373z"/>
				<path class="st9" d="M427.069,242.801l-0.119-0.874v-21.996c0-0.84,0.171-1.323,0.514-1.452
					c0.343-0.127,0.607-0.191,0.792-0.191c0.686,0,1.069,0.257,1.148,0.77l0.119,0.874v21.996c0,0.84-0.172,1.323-0.515,1.452
					c-0.343,0.127-0.62,0.191-0.832,0.191C427.518,243.571,427.148,243.315,427.069,242.801z"/>
				<path class="st9" d="M457.629,219.441l0.158,1.015c0.026,0.117,0.04,0.228,0.04,0.332c0,0.105,0,0.204,0,0.298
					c0,0.979-0.409,1.468-1.227,1.468c-0.633,0-1.029-0.256-1.188-0.769l-0.198-0.944l-0.039-0.455
					c-0.555,0.094-1.029,0.17-1.425,0.228c-0.396,0.059-2.006,0.402-4.83,1.031c-2.824,0.63-5.7,2.047-8.629,4.249
					c-2.93,2.203-4.592,4.074-4.988,5.613c-0.396,1.538-0.594,2.622-0.594,3.252c0,1.935,0.706,3.526,2.118,4.773
					c1.411,1.247,3.239,1.871,5.482,1.871c1.636,0,3.081-0.32,4.335-0.961c1.253-0.642,2.17-1.499,2.751-2.571l0.317-0.734
					c0.396-1.071,0.857-1.608,1.385-1.608c0.185,0,0.461,0.076,0.831,0.228c0.37,0.152,0.555,0.636,0.555,1.45v12.625
					c0,0.792-0.251,1.306-0.752,1.539c-0.211,0.07-0.409,0.104-0.594,0.104c-0.66,0-1.029-0.257-1.108-0.77l-0.119-0.874v-8.987
					l-0.831,0.665c-1.742,1.281-3.22,1.969-4.434,2.062c-1.214,0.093-1.947,0.151-2.197,0.175c-0.251,0.023-0.442,0.035-0.574,0.035
					c-2.877,0-5.252-0.84-7.125-2.518c-1.874-1.679-2.811-3.766-2.811-6.26c0-0.536,0.165-1.627,0.495-3.27
					c0.329-1.645,1.722-3.614,4.176-5.91s4.756-3.824,6.908-4.581c2.151-0.758,3.549-1.236,4.196-1.434
					c0.647-0.198,1.155-0.344,1.524-0.438l0.91-0.245l0.911-0.209l0.99-0.176l0.95-0.175l0.594-0.105l1.148-0.174l1.346-0.141
					C457.009,218.147,457.523,218.579,457.629,219.441z"/>
				<path class="st9" d="M460.36,242.801l-0.119-0.874v-21.892l0.119-1.084c0.106-0.56,0.503-0.805,1.192-0.734
					c0.449,0,0.913,0.278,1.39,0.835l0.596,0.767l13.883,18.78V213.25c0-0.838,0.164-1.327,0.494-1.468
					c0.33-0.14,0.614-0.21,0.851-0.21c0.634,0,1.003,0.268,1.109,0.804l0.119,0.873v28.645l-0.119,0.943
					c-0.079,0.49-0.449,0.733-1.109,0.733c-0.184-0.022-0.395-0.078-0.632-0.167c-0.237-0.09-0.475-0.303-0.713-0.638
					l-14.607-19.827v18.988c0,0.84-0.172,1.323-0.515,1.452c-0.343,0.127-0.62,0.191-0.831,0.191
					C460.809,243.571,460.439,243.315,460.36,242.801z"/>
			</g>
		</g>
	</g>
	<g>
		<g>
			<g>
				<g>
					<g>
						<path class="st9" d="M135.527,216.881c-3.63,0.758-7.716,1.982-12.259,3.673c-5.087,1.868-9.316,3.851-12.688,5.945
							c-5.287,3.257-7.93,6.475-7.93,9.656c0,1.741,1.042,3.028,3.129,3.862c1.571,0.631,3.472,0.946,5.701,0.946
							c10.173,0,15.26-3.181,15.26-9.542l-0.043-0.341c-3.916,1.312-6.387,1.969-7.416,1.969c-1.258,0-1.886-0.556-1.886-1.667
							c0-0.781,0.429-1.287,1.286-1.514c0.4-0.101,1.2-0.152,2.4-0.152c0.199,0,0.5,0.014,0.9,0.039
							c0.285,0.024,0.571,0.024,0.857,0c0.6-0.025,2.458-0.492,5.572-1.401c1.514-0.43,2.6-0.631,3.258-0.605l0.686,0.037
							c-0.229,1.616-0.915,3.421-2.058,5.415c-0.515,0.884-1.672,2.638-3.472,5.264c-1.543,2.222-2.572,3.976-3.086,5.264
							c-0.4,0.983-1.029,1.477-1.886,1.477c-1.029,0-1.729-0.354-2.101-1.061c0.143-0.632,0.557-1.363,1.243-2.196
							c-0.286-0.252-0.457-0.378-0.514-0.378c-0.2,0.025-0.415,0.037-0.643,0.037c-0.915,0-3,0.151-6.258,0.455
							c-1.629,0.151-2.901,0.227-3.815,0.227c-2.515,0-4.629-0.366-6.344-1.098c-2.287-0.985-3.429-2.449-3.429-4.394
							c0-2.65,2.214-5.805,6.644-9.466c3.172-2.626,7.258-5.25,12.259-7.876c5.972-3.131,10.572-4.695,13.802-4.695
							C134.413,214.761,135.355,215.468,135.527,216.881z"/>
						<path class="st9" d="M150.872,233.618l-6.73-1.931c-1.657,0-3.114,0.998-4.372,2.991c-0.458,0.683-1.222,2.291-2.293,4.829
							c-1.071,2.536-2.793,3.805-5.165,3.805c0.142-1.035,0.885-2.462,2.229-4.279c1.458-1.969,2.329-3.42,2.614-4.354
							c0.229-0.781,0.386-2.069,0.472-3.862c0.028-0.757,0.228-1.54,0.6-2.348c0.515-1.136,1.1-1.729,1.757-1.779l0.814,0.037
							l0.429,2.575c0.2,0.657,0.872,0.985,2.015,0.985h1.458c0.257-0.025,0.457-0.039,0.6-0.039
							C148.585,230.198,150.443,231.322,150.872,233.618z"/>
						<path class="st9" d="M173.074,242.593c-0.629,1.211-1.372,1.817-2.229,1.817c-0.972,0-2.043-0.632-3.214-1.895
							c-0.916-0.958-1.658-1.993-2.229-3.104c-2.4,1.011-4.029,1.666-4.886,1.969c-2.115,0.732-3.815,1.099-5.101,1.099
							c-2.258,0-3.386-1.01-3.386-3.029c0-3.257,2-6.159,6.001-8.71c1.314-0.832,3.086-1.729,5.315-2.688
							c2.657-1.137,4.543-1.705,5.658-1.705c0.771,0,1.5,0.367,2.186,1.099c0.686,0.733,1.029,1.452,1.029,2.158
							c0,1.39-0.621,3.213-1.864,5.473s-1.865,3.565-1.865,3.919c0,1.211,0.214,2.045,0.643,2.499
							C169.474,241.873,170.788,242.24,173.074,242.593z M171.531,229.794c0-0.909-0.886-1.364-2.658-1.364
							c-2.601,0-4.758,0.519-6.472,1.553c-1.601,0.96-3.258,2.247-4.972,3.862c-2.172,2.045-3.258,3.66-3.258,4.848
							c0,0.707,0.343,1.249,1.029,1.627c0.6,0.329,1.329,0.492,2.186,0.492c2.486,0,4.614-0.769,6.387-2.31
							c0.428-0.378,1.643-1.829,3.643-4.354c1.229-1.564,2.415-2.348,3.558-2.348C171.345,231.094,171.531,230.425,171.531,229.794z
							 M172.946,243.35v-0.113h0.085v-0.114h-0.085v-0.228h0.171v0.076h-0.086v0.075h0.086v0.304H172.946z"/>
						<path class="st9" d="M195.277,230.626c0,2.475-1.786,4.671-5.358,6.589c-1.601,0.858-5.129,2.272-10.587,4.241
							c-4.201,1.489-6.672,2.789-7.416,3.899c-0.943,2.07-1.714,3.648-2.314,4.734c-1.257,2.246-2.543,3.37-3.858,3.37
							c-0.799,0-1.2-0.354-1.2-1.061c0-0.556,0.786-1.717,2.357-3.483c0.715-0.757,1.751-1.894,3.108-3.408s2.192-2.688,2.507-3.522
							l4.415-4.771c1.857-2.246,2.786-4.051,2.786-5.415c-0.229,0.127-0.529,0.284-0.9,0.474c-0.372,0.189-0.857,0.386-1.457,0.587
							c-0.429-0.328-0.643-0.795-0.643-1.4c0-1.086,1.985-2.146,5.958-3.182c3.371-0.883,5.943-1.324,7.715-1.324
							C193.648,226.955,195.277,228.179,195.277,230.626z M192.748,230.513c0-1.061-1.129-1.591-3.386-1.591
							c-1.401,0-2.772,0.379-4.115,1.137c-1.2,0.681-2.801,2.297-4.801,4.847c-2.057,2.651-3.086,4.52-3.086,5.604
							c0.828-0.253,2.314-0.745,4.458-1.478c2.229-0.832,4.3-1.994,6.215-3.483c0.714-0.555,1.872-1.564,3.472-3.028
							C192.333,231.763,192.748,231.094,192.748,230.513z"/>
						<path class="st9" d="M222.881,230.589c0,1.161-0.851,3.181-2.551,6.059c-1.7,2.877-2.55,4.758-2.55,5.642
							c0,0.731,0.228,1.439,0.686,2.121c-1.029,0.479-1.829,0.719-2.4,0.719c-1.058,0-1.586-0.479-1.586-1.438
							c0-1.01,0.836-3.023,2.507-6.04c1.672-3.016,2.508-5.105,2.508-6.268c0-0.15-0.029-0.39-0.086-0.719
							c-0.058-0.328-0.085-0.568-0.085-0.72c-4.201,0.43-8.259,1.844-12.173,4.241c-4.058,2.499-6.873,5.415-8.444,8.747
							c-0.628-0.202-1.571-0.417-2.829-0.644c0.143-0.555,1.128-1.906,2.958-4.052c0.657-0.732,2.471-2.84,5.444-6.324
							c2.171-2.549,3.543-4.253,4.115-5.111c0.171-0.252,1.029-2.007,2.572-5.264c1.114-2.321,2.143-3.862,3.086-4.619
							c0.343,0.177,0.7,0.366,1.072,0.568c0.371,0.202,0.557,0.479,0.557,0.832c0,0.379-2.415,4.86-7.244,13.443
							c2.4-0.935,4.501-1.729,6.301-2.386c3.429-1.262,5.372-1.894,5.83-1.894c0.514,0,0.9,0.114,1.157,0.341
							C222.495,228.506,222.881,229.428,222.881,230.589z"/>
						<path class="st9" d="M230.253,231.383c0,0.405-0.8,2.412-2.4,6.021c-0.2,0.454-0.5,1.124-0.9,2.007
							c-0.343,0.682-0.787,1.111-1.329,1.287c-0.314,0.102-0.958,0.151-1.928,0.151c0-0.176-0.037-0.428-0.107-0.757
							c-0.072-0.328-0.107-0.58-0.107-0.757c0-0.556,0.243-1.174,0.729-1.856c0.657-0.934,1.029-1.502,1.114-1.703
							c0.228-0.631,0.671-1.742,1.329-3.333c0.486-1.11,1.257-2.044,2.314-2.802C229.824,230.4,230.253,230.981,230.253,231.383z
							 M234.282,220.971c0,0.908-0.686,1.362-2.057,1.362c-1.258,0-1.887-0.454-1.887-1.362c0-0.455,0.165-1.085,0.494-1.894
							c0.328-0.808,0.507-1.413,0.536-1.817c0.285,0.15,0.828,0.871,1.629,2.158c0.057,0.075,0.314,0.304,0.771,0.682
							C234.111,220.378,234.282,220.667,234.282,220.971z"/>
						<path class="st9" d="M260.942,239.829c-1.772,1.212-4.401,2.12-7.886,2.726c-2.772,0.505-5.645,0.758-8.616,0.758
							c-6.573,0-9.859-1.779-9.859-5.34c0-3.811,4.072-7.27,12.216-10.374c2.771-1.061,5.429-1.843,7.973-2.349
							c1.057,0.556,1.585,1.187,1.585,1.894c0,0.909-0.357,2.058-1.071,3.446c-0.829,1.615-1.686,2.423-2.572,2.423
							c-0.428,0-0.851-0.12-1.265-0.359c-0.415-0.239-0.621-0.536-0.621-0.89c0-0.328,0.771-1.401,2.314-3.22
							c-0.486-0.075-0.958-0.138-1.415-0.188c-2.543,0-5.529,0.946-8.958,2.84c-3.801,2.096-5.701,4.216-5.701,6.362
							c0,1.589,0.9,2.763,2.7,3.521c1.372,0.582,3.058,0.871,5.058,0.871c4.657,0,8.615-0.353,11.873-1.061
							c0.085-0.024,0.528-0.189,1.329-0.491c0.515-0.202,0.943-0.304,1.286-0.304c0.114,0,0.214,0.014,0.3,0.038l0.429-0.341
							l0.814-0.038L260.942,239.829z"/>
						<path class="st9" d="M287.475,224.152c-0.257,1.187-1.329,2.02-3.215,2.499c-1.115,0.252-3.101,0.694-5.958,1.325
							c-2.458,0.556-4.244,1.339-5.358,2.348c3.601,0.783,5.844,1.325,6.73,1.628c3.143,1.036,4.715,2.234,4.715,3.598
							c0,1.969-1.872,3.812-5.615,5.528c-3.315,1.49-6.201,2.234-8.658,2.234c-2.03,0-3.887-0.694-5.573-2.083
							c-1.829-1.515-2.672-3.13-2.528-4.847l0.042-0.568c0.8,0.254,1.957,1.313,3.472,3.182c1.428,1.741,2.686,2.612,3.771,2.612
							c1.857,0,4.258-0.555,7.201-1.666c3.4-1.288,5.101-2.625,5.101-4.014c0-0.984-1-1.742-3-2.271
							c-0.086,0-2.215-0.48-6.387-1.439c-2.315-0.53-3.83-1.148-4.543-1.855c0.857-0.833,2.557-1.717,5.101-2.65
							c1.629-0.606,4.057-1.339,7.287-2.196c3.486-0.934,5.543-1.502,6.173-1.704C286.604,223.988,287.018,224.101,287.475,224.152z
							"/>
					</g>
				</g>
			</g>
		</g>
	</g>
	<g>
		<g>
			<g>
				<g>
					<path class="st9" d="M652.013,227.625l-6.297,1.854v-15.051l6.297,3.709V227.625z M652.013,241.209l-3.173,1.854l-3.124-1.854
						v-10.91l6.297,2.328V241.209z M695.48,243.625l-3.124,1.854H653.11l-3.075-1.769l3.124-1.94h15.327l4.15,2.501l4.246-2.501
						h15.376L695.48,243.625z M675.735,227.798l-3.099,1.682l-3.198-1.678V217.56l3.1-3.098l3.197,3.098V227.798z M675.735,241.209
						l-3.099,1.897l-3.198-1.984v-9.529l3.1-1.424l3.197,1.424V241.209z M699.459,229.48l-6.297-1.851v-9.467l6.297-3.7V229.48z
						 M699.459,241.209l-2.977,1.811l-3.32-1.811v-8.625l6.297-2.285V241.209z"/>
					<path class="st9" d="M712.053,227.324l-6.297,2.156v-14.417l6.297,3.783V227.324z M712.053,241.105l-6.297,3.783v-14.459
						l6.297,1.854V241.105z M734.751,214.473l-6.297,3.709h-15.327l-6.346-3.709H734.751z M734.751,245.479h-27.97l6.346-3.709
						h15.327L734.751,245.479z M734.328,229.955l-5.906,1.639l-15.328,0.088l-5.875-1.73l6.033-2.066h15.17L734.328,229.955z"/>
					<path class="st9" d="M744.661,227.324l-6.297,2.156v-14.417l6.297,3.783V227.324z M744.661,241.123l-6.297,3.752v-14.445
						l6.297,1.854V241.123z M764.307,243.582l-3.222,1.897h-21.726l6.398-3.709h15.327L764.307,243.582z M764.283,216.371
						l-3.221,1.812h-15.328l-6.345-3.709h21.673L764.283,216.371z M766.922,229.951l-5.832,1.717l-15.388,0.014l-5.876-1.73
						l6.033-2.066h15.029L766.922,229.951z M768.385,229.48l-6.298-2.156v-8.538l3.124-1.854l3.174,1.854V229.48z M768.385,241.123
						l-3.174,1.854l-3.124-1.854v-8.84l6.298-1.854V241.123z"/>
					<path class="st9" d="M794.987,232.456l-4.247,3.708h-17.671l4.247-3.708H794.987z"/>
					<path class="st9" d="M805.971,227.335l-6.297,2.145v-14.417l6.297,3.783V227.335z M805.971,241.123l-6.297,3.752v-14.445
						l6.297,1.854V241.123z M825.616,243.582l-3.222,1.897h-21.726l6.397-3.709h15.328L825.616,243.582z M825.593,216.371
						l-3.222,1.812h-15.327l-6.346-3.709h21.673L825.593,216.371z M829.693,229.48l-6.297-2.156v-8.538l3.124-1.854l3.173,1.854
						V229.48z M829.693,241.123l-3.173,1.854l-3.124-1.854v-8.84l6.297-1.854V241.123z"/>
					<path class="st9" d="M842.238,227.324l-6.297,2.156v-14.417l6.297,3.783V227.324z M842.238,241.105l-6.297,3.783v-14.459
						l6.297,1.854V241.105z M864.937,214.473l-6.297,3.709h-15.328l-6.345-3.709H864.937z M864.937,245.479h-27.97l6.345-3.709
						h15.328L864.937,245.479z M864.514,229.955l-5.906,1.639l-15.328,0.088l-5.876-1.73l6.033-2.066h15.171L864.514,229.955z"/>
					<path class="st9" d="M874.847,227.324l-6.297,2.156v-14.446l6.297,3.752V227.324z M882.803,245.489l-14.253-15.491l8.24,1.3
						l6.024,6.411L882.803,245.489z M898.723,230.041l-14.31,15.438v-7.763l6.012-6.42L898.723,230.041z M898.569,229.48
						l-6.297-2.157v-8.546l6.297-3.754V229.48z"/>
				</g>
			</g>
		</g>
	</g>
	<g>
		<g>
			<g>
				<g>
					<path class="st9" d="M541.977,243.89v-27.5h6.891v27.5H541.977z"/>
					<path class="st9" d="M562.729,243.89v-24.457h-6.931v-3.043h20.752v3.043h-6.931v24.457H562.729z"/>
				</g>
			</g>
		</g>
	</g>
</g>
</symbol>
<use xlink:href="#creative-tech">
</svg>
